# MagicaVoxel @ Ephtracy

# group
o 

# material
mtllib Lamp.mtl
usemtl palette

# normals
vn -1 0 0
vn 1 0 0
vn 0 0 1
vn 0 0 -1
vn 0 -1 0
vn 0 1 0

# texcoords
vt 0.958984 0.5
vt 0.986328 0.5
vt 0.994141 0.5

# verts
v 0 0.7 0.4
v 0 0.7 -0.1
v 0 0.9 0.3
v 0 0.9 0
v 0 1.3 0.3
v 0 1.3 0
v 0 1.6 0.4
v 0 1.6 -0.1
v 0.2 0.8 0.2
v 0.2 0.8 0.1
v 0.2 1 0.2
v 0.2 1 0.1
v 0.2 1.1 0.2
v 0.2 1.1 0.1
v 0.2 1.6 0.2
v 0.2 1.6 0.1
v 0.2 2.7 0.2
v 0.2 2.7 0.1
v 0.4 0.8 0.3
v 0.4 0.8 0
v 0.4 0.9 0.4
v 0.4 0.9 0.3
v 0.4 0.9 0
v 0.4 0.9 -0.1
v 0.4 1.3 0.4
v 0.4 1.3 0.3
v 0.4 1.3 0
v 0.4 1.3 -0.1
v 0.4 1.5 0.3
v 0.4 1.5 0
v 0.1 0.8 0.3
v 0.1 0.8 0
v 0.1 0.9 0.4
v 0.1 0.9 0.3
v 0.1 0.9 0
v 0.1 0.9 -0.1
v 0.1 1.3 0.4
v 0.1 1.3 0.3
v 0.1 1.3 0
v 0.1 1.3 -0.1
v 0.1 1.5 0.3
v 0.1 1.5 0
v 0.3 0.8 0.2
v 0.3 0.8 0.1
v 0.3 1 0.2
v 0.3 1 0.1
v 0.3 1.1 0.2
v 0.3 1.1 0.1
v 0.3 1.6 0.2
v 0.3 1.6 0.1
v 0.3 2.7 0.2
v 0.3 2.7 0.1
v 0.5 0.7 0.4
v 0.5 0.7 -0.1
v 0.5 0.9 0.3
v 0.5 0.9 0
v 0.5 1.3 0.3
v 0.5 1.3 0
v 0.5 1.6 0.4
v 0.5 1.6 -0.1
v 0 0.7 0.4
v 0 1.6 0.4
v 0.1 0.9 0.4
v 0.1 1.3 0.4
v 0.4 0.9 0.4
v 0.4 1.3 0.4
v 0.5 0.7 0.4
v 0.5 1.6 0.4
v 0.2 0.8 0.2
v 0.2 1 0.2
v 0.2 1.1 0.2
v 0.2 1.6 0.2
v 0.2 2.7 0.2
v 0.3 0.8 0.2
v 0.3 1 0.2
v 0.3 1.1 0.2
v 0.3 1.6 0.2
v 0.3 2.7 0.2
v 0 0.9 0
v 0 1.3 0
v 0.1 0.8 0
v 0.1 0.9 0
v 0.1 1.3 0
v 0.1 1.5 0
v 0.4 0.8 0
v 0.4 0.9 0
v 0.4 1.3 0
v 0.4 1.5 0
v 0.5 0.9 0
v 0.5 1.3 0
v 0 0.9 0.3
v 0 1.3 0.3
v 0.1 0.8 0.3
v 0.1 0.9 0.3
v 0.1 1.3 0.3
v 0.1 1.5 0.3
v 0.4 0.8 0.3
v 0.4 0.9 0.3
v 0.4 1.3 0.3
v 0.4 1.5 0.3
v 0.5 0.9 0.3
v 0.5 1.3 0.3
v 0.2 0.8 0.1
v 0.2 1 0.1
v 0.2 1.1 0.1
v 0.2 1.6 0.1
v 0.2 2.7 0.1
v 0.3 0.8 0.1
v 0.3 1 0.1
v 0.3 1.1 0.1
v 0.3 1.6 0.1
v 0.3 2.7 0.1
v 0 0.7 -0.1
v 0 1.6 -0.1
v 0.1 0.9 -0.1
v 0.1 1.3 -0.1
v 0.4 0.9 -0.1
v 0.4 1.3 -0.1
v 0.5 0.7 -0.1
v 0.5 1.6 -0.1
v 0 0.7 0.4
v 0.5 0.7 0.4
v 0 0.7 -0.1
v 0.5 0.7 -0.1
v 0.1 1.3 0.4
v 0.4 1.3 0.4
v 0 1.3 0.3
v 0.1 1.3 0.3
v 0.4 1.3 0.3
v 0.5 1.3 0.3
v 0 1.3 0
v 0.1 1.3 0
v 0.4 1.3 0
v 0.5 1.3 0
v 0.1 1.3 -0.1
v 0.4 1.3 -0.1
v 0.1 1.5 0.3
v 0.4 1.5 0.3
v 0.1 1.5 0
v 0.4 1.5 0
v 0.1 0.8 0.3
v 0.4 0.8 0.3
v 0.2 0.8 0.2
v 0.3 0.8 0.2
v 0.2 0.8 0.1
v 0.3 0.8 0.1
v 0.1 0.8 0
v 0.4 0.8 0
v 0.1 0.9 0.4
v 0.4 0.9 0.4
v 0 0.9 0.3
v 0.1 0.9 0.3
v 0.4 0.9 0.3
v 0.5 0.9 0.3
v 0 0.9 0
v 0.1 0.9 0
v 0.4 0.9 0
v 0.5 0.9 0
v 0.1 0.9 -0.1
v 0.4 0.9 -0.1
v 0.2 1.1 0.2
v 0.3 1.1 0.2
v 0.2 1.1 0.1
v 0.3 1.1 0.1
v 0 1.6 0.4
v 0.5 1.6 0.4
v 0.2 1.6 0.2
v 0.3 1.6 0.2
v 0.2 1.6 0.1
v 0.3 1.6 0.1
v 0 1.6 -0.1
v 0.5 1.6 -0.1
v 0.2 2.7 0.2
v 0.3 2.7 0.2
v 0.2 2.7 0.1
v 0.3 2.7 0.1

# faces
f 3/2/1 2/2/1 1/2/1
f 4/2/1 2/2/1 3/2/1
f 5/2/1 3/2/1 1/2/1
f 6/2/1 2/2/1 4/2/1
f 7/2/1 5/2/1 1/2/1
f 7/2/1 6/2/1 5/2/1
f 8/2/1 2/2/1 6/2/1
f 8/2/1 6/2/1 7/2/1
f 11/3/1 10/3/1 9/3/1
f 12/3/1 10/3/1 11/3/1
f 13/1/1 12/1/1 11/1/1
f 14/1/1 12/1/1 13/1/1
f 17/3/1 16/3/1 15/3/1
f 18/3/1 16/3/1 17/3/1
f 22/2/1 20/2/1 19/2/1
f 23/2/1 20/2/1 22/2/1
f 25/2/1 22/2/1 21/2/1
f 26/2/1 22/2/1 25/2/1
f 27/2/1 24/2/1 23/2/1
f 28/2/1 24/2/1 27/2/1
f 29/2/1 27/2/1 26/2/1
f 30/2/1 27/2/1 29/2/1
f 31/2/2 32/2/2 34/2/2
f 34/2/2 32/2/2 35/2/2
f 33/2/2 34/2/2 37/2/2
f 37/2/2 34/2/2 38/2/2
f 35/2/2 36/2/2 39/2/2
f 39/2/2 36/2/2 40/2/2
f 38/2/2 39/2/2 41/2/2
f 41/2/2 39/2/2 42/2/2
f 43/3/2 44/3/2 45/3/2
f 45/3/2 44/3/2 46/3/2
f 45/1/2 46/1/2 47/1/2
f 47/1/2 46/1/2 48/1/2
f 49/3/2 50/3/2 51/3/2
f 51/3/2 50/3/2 52/3/2
f 53/2/2 54/2/2 55/2/2
f 55/2/2 54/2/2 56/2/2
f 53/2/2 55/2/2 57/2/2
f 56/2/2 54/2/2 58/2/2
f 53/2/2 57/2/2 59/2/2
f 57/2/2 58/2/2 59/2/2
f 58/2/2 54/2/2 60/2/2
f 59/2/2 58/2/2 60/2/2
f 63/2/3 62/2/3 61/2/3
f 64/2/3 62/2/3 63/2/3
f 65/2/3 63/2/3 61/2/3
f 66/2/3 62/2/3 64/2/3
f 67/2/3 65/2/3 61/2/3
f 67/2/3 66/2/3 65/2/3
f 68/2/3 62/2/3 66/2/3
f 68/2/3 66/2/3 67/2/3
f 74/3/3 70/3/3 69/3/3
f 75/1/3 71/1/3 70/1/3
f 75/3/3 70/3/3 74/3/3
f 76/1/3 71/1/3 75/1/3
f 77/3/3 73/3/3 72/3/3
f 78/3/3 73/3/3 77/3/3
f 82/2/3 80/2/3 79/2/3
f 83/2/3 80/2/3 82/2/3
f 85/2/3 82/2/3 81/2/3
f 86/2/3 82/2/3 85/2/3
f 87/2/3 84/2/3 83/2/3
f 88/2/3 84/2/3 87/2/3
f 89/2/3 87/2/3 86/2/3
f 90/2/3 87/2/3 89/2/3
f 91/2/4 92/2/4 94/2/4
f 94/2/4 92/2/4 95/2/4
f 93/2/4 94/2/4 97/2/4
f 97/2/4 94/2/4 98/2/4
f 95/2/4 96/2/4 99/2/4
f 99/2/4 96/2/4 100/2/4
f 98/2/4 99/2/4 101/2/4
f 101/2/4 99/2/4 102/2/4
f 103/3/4 104/3/4 108/3/4
f 104/1/4 105/1/4 109/1/4
f 108/3/4 104/3/4 109/3/4
f 109/1/4 105/1/4 110/1/4
f 106/3/4 107/3/4 111/3/4
f 111/3/4 107/3/4 112/3/4
f 113/2/4 114/2/4 115/2/4
f 115/2/4 114/2/4 116/2/4
f 113/2/4 115/2/4 117/2/4
f 116/2/4 114/2/4 118/2/4
f 113/2/4 117/2/4 119/2/4
f 117/2/4 118/2/4 119/2/4
f 118/2/4 114/2/4 120/2/4
f 119/2/4 118/2/4 120/2/4
f 123/2/5 122/2/5 121/2/5
f 124/2/5 122/2/5 123/2/5
f 128/2/5 126/2/5 125/2/5
f 129/2/5 126/2/5 128/2/5
f 131/2/5 128/2/5 127/2/5
f 132/2/5 128/2/5 131/2/5
f 133/2/5 130/2/5 129/2/5
f 134/2/5 130/2/5 133/2/5
f 135/2/5 133/2/5 132/2/5
f 136/2/5 133/2/5 135/2/5
f 139/2/5 138/2/5 137/2/5
f 140/2/5 138/2/5 139/2/5
f 141/2/6 142/2/6 143/2/6
f 143/2/6 142/2/6 144/2/6
f 141/2/6 143/2/6 145/2/6
f 144/2/6 142/2/6 146/2/6
f 141/2/6 145/2/6 147/2/6
f 145/2/6 146/2/6 147/2/6
f 146/2/6 142/2/6 148/2/6
f 147/2/6 146/2/6 148/2/6
f 149/2/6 150/2/6 152/2/6
f 152/2/6 150/2/6 153/2/6
f 151/2/6 152/2/6 155/2/6
f 155/2/6 152/2/6 156/2/6
f 153/2/6 154/2/6 157/2/6
f 157/2/6 154/2/6 158/2/6
f 156/2/6 157/2/6 159/2/6
f 159/2/6 157/2/6 160/2/6
f 161/1/6 162/1/6 163/1/6
f 163/1/6 162/1/6 164/1/6
f 165/2/6 166/2/6 167/2/6
f 167/2/6 166/2/6 168/2/6
f 165/2/6 167/2/6 169/2/6
f 168/2/6 166/2/6 170/2/6
f 165/2/6 169/2/6 171/2/6
f 169/2/6 170/2/6 171/2/6
f 170/2/6 166/2/6 172/2/6
f 171/2/6 170/2/6 172/2/6
f 173/3/6 174/3/6 175/3/6
f 175/3/6 174/3/6 176/3/6
