# MagicaVoxel @ Ephtracy

# group
o 

# material
mtllib pl2.mtl
usemtl palette

# normals
vn -1 0 0
vn 1 0 0
vn 0 0 1
vn 0 0 -1
vn 0 -1 0
vn 0 1 0

# texcoords
vt 0.966797 0.5
vt 0.982422 0.5
vt 0.990234 0.5

# verts
v -1.9 2 1.8
v -1.9 2 1.5
v -1.9 2.9 1.8
v -1.9 2.9 1.5
v -1.8 2.7 1.9
v -1.8 2.7 1.8
v -1.8 2.8 1.9
v -1.8 2.8 1.8
v -1.7 2.6 2
v -1.7 2.6 1.8
v -1.7 2.7 1.9
v -1.7 2.7 1.8
v -1.7 2.8 2
v -1.7 2.8 1.9
v 1.2 2.2 1.8
v 1.2 2.2 1.5
v 1.2 2.6 1.8
v 1.2 2.6 1.7
v 1.2 2.6 1.6
v 1.2 2.6 1.5
v 1.4 2.6 1.9
v 1.4 2.6 1.8
v 1.4 2.8 1.9
v 1.4 2.8 1.8
v -1.4 2.6 1.9
v -1.4 2.6 1.8
v -1.4 2.8 1.9
v -1.4 2.8 1.8
v -1.2 2.2 1.8
v -1.2 2.2 1.5
v -1.2 2.6 1.8
v -1.2 2.6 1.7
v -1.2 2.6 1.6
v -1.2 2.6 1.5
v 1.7 2.6 2
v 1.7 2.6 1.8
v 1.7 2.7 1.9
v 1.7 2.7 1.8
v 1.7 2.8 2
v 1.7 2.8 1.9
v 1.8 2.7 1.9
v 1.8 2.7 1.8
v 1.8 2.8 1.9
v 1.8 2.8 1.8
v 1.9 2 1.8
v 1.9 2 1.5
v 1.9 2.9 1.8
v 1.9 2.9 1.5
v -1.7 2.6 2
v -1.7 2.8 2
v 1.7 2.6 2
v 1.7 2.8 2
v -1.8 2.7 1.9
v -1.8 2.8 1.9
v -1.7 2.7 1.9
v -1.7 2.8 1.9
v 1.7 2.7 1.9
v 1.7 2.8 1.9
v 1.8 2.7 1.9
v 1.8 2.8 1.9
v -1.9 2 1.8
v -1.9 2.9 1.8
v -1.8 2.7 1.8
v -1.8 2.8 1.8
v -1.7 2.6 1.8
v -1.7 2.7 1.8
v -1.4 2.6 1.8
v -1.4 2.8 1.8
v -1.2 2 1.8
v -1.2 2.2 1.8
v -1.2 2.6 1.8
v -1.2 2.9 1.8
v 1.2 2 1.8
v 1.2 2.2 1.8
v 1.2 2.6 1.8
v 1.2 2.9 1.8
v 1.4 2.6 1.8
v 1.4 2.8 1.8
v 1.7 2.6 1.8
v 1.7 2.7 1.8
v 1.8 2.7 1.8
v 1.8 2.8 1.8
v 1.9 2 1.8
v 1.9 2.9 1.8
v -1.4 2.6 1.9
v -1.4 2.8 1.9
v 1.4 2.6 1.9
v 1.4 2.8 1.9
v -1.9 2 1.5
v -1.9 2.9 1.5
v -1.2 2 1.5
v -1.2 2.2 1.5
v -1.2 2.6 1.5
v -1.2 2.9 1.5
v 1.2 2 1.5
v 1.2 2.2 1.5
v 1.2 2.6 1.5
v 1.2 2.9 1.5
v 1.9 2 1.5
v 1.9 2.9 1.5
v -1.9 2 1.8
v -1.2 2 1.8
v 1.2 2 1.8
v 1.9 2 1.8
v -1.9 2 1.5
v -1.2 2 1.5
v 1.2 2 1.5
v 1.9 2 1.5
v -1.7 2.6 2
v 1.7 2.6 2
v -1.4 2.6 1.9
v 1.4 2.6 1.9
v -1.7 2.6 1.8
v -1.4 2.6 1.8
v -1.2 2.6 1.8
v 1.2 2.6 1.8
v 1.4 2.6 1.8
v 1.7 2.6 1.8
v -1.2 2.6 1.7
v 1.2 2.6 1.7
v -1.2 2.6 1.6
v 1.2 2.6 1.6
v -1.2 2.6 1.5
v 1.2 2.6 1.5
v -1.8 2.7 1.9
v -1.7 2.7 1.9
v 1.7 2.7 1.9
v 1.8 2.7 1.9
v -1.8 2.7 1.8
v -1.7 2.7 1.8
v 1.7 2.7 1.8
v 1.8 2.7 1.8
v -1.2 2.2 1.8
v 1.2 2.2 1.8
v -1.2 2.2 1.5
v 1.2 2.2 1.5
v -1.7 2.8 2
v 1.7 2.8 2
v -1.8 2.8 1.9
v -1.7 2.8 1.9
v -1.4 2.8 1.9
v 1.4 2.8 1.9
v 1.7 2.8 1.9
v 1.8 2.8 1.9
v -1.8 2.8 1.8
v -1.4 2.8 1.8
v 1.4 2.8 1.8
v 1.8 2.8 1.8
v -1.9 2.9 1.8
v -1.2 2.9 1.8
v 1.2 2.9 1.8
v 1.9 2.9 1.8
v -1.9 2.9 1.5
v -1.2 2.9 1.5
v 1.2 2.9 1.5
v 1.9 2.9 1.5

# faces
f 3/1/1 2/1/1 1/1/1
f 4/1/1 2/1/1 3/1/1
f 7/1/1 6/1/1 5/1/1
f 8/1/1 6/1/1 7/1/1
f 11/1/1 10/1/1 9/1/1
f 12/1/1 10/1/1 11/1/1
f 13/1/1 11/1/1 9/1/1
f 14/1/1 11/1/1 13/1/1
f 17/1/1 16/1/1 15/1/1
f 18/1/1 16/1/1 17/1/1
f 19/1/1 16/1/1 18/1/1
f 20/1/1 16/1/1 19/1/1
f 23/1/1 22/1/1 21/1/1
f 24/1/1 22/1/1 23/1/1
f 25/1/2 26/1/2 27/1/2
f 27/1/2 26/1/2 28/1/2
f 29/1/2 30/1/2 31/1/2
f 31/1/2 30/1/2 32/1/2
f 32/1/2 30/1/2 33/1/2
f 33/1/2 30/1/2 34/1/2
f 35/1/2 36/1/2 37/1/2
f 37/1/2 36/1/2 38/1/2
f 35/1/2 37/1/2 39/1/2
f 39/1/2 37/1/2 40/1/2
f 41/1/2 42/1/2 43/1/2
f 43/1/2 42/1/2 44/1/2
f 45/1/2 46/1/2 47/1/2
f 47/1/2 46/1/2 48/1/2
f 51/1/3 50/1/3 49/1/3
f 52/1/3 50/1/3 51/1/3
f 55/1/3 54/1/3 53/1/3
f 56/1/3 54/1/3 55/1/3
f 59/1/3 58/1/3 57/1/3
f 60/1/3 58/1/3 59/1/3
f 63/1/3 62/1/3 61/1/3
f 64/1/3 62/1/3 63/1/3
f 65/1/3 63/1/3 61/1/3
f 66/1/3 63/1/3 65/1/3
f 67/1/3 65/1/3 61/1/3
f 68/1/3 62/1/3 64/1/3
f 69/1/3 67/1/3 61/1/3
f 69/1/3 68/1/3 67/1/3
f 70/1/3 68/1/3 69/1/3
f 71/1/3 68/1/3 70/1/3
f 72/1/3 62/1/3 68/1/3
f 72/1/3 68/1/3 71/1/3
f 73/3/3 70/3/3 69/3/3
f 74/3/3 70/3/3 73/3/3
f 75/3/3 72/3/3 71/3/3
f 76/3/3 72/3/3 75/3/3
f 77/1/3 74/1/3 73/1/3
f 77/1/3 75/1/3 74/1/3
f 77/1/3 76/1/3 75/1/3
f 78/1/3 76/1/3 77/1/3
f 79/1/3 77/1/3 73/1/3
f 81/1/3 80/1/3 79/1/3
f 82/1/3 76/1/3 78/1/3
f 83/1/3 81/1/3 79/1/3
f 83/1/3 82/1/3 81/1/3
f 83/1/3 79/1/3 73/1/3
f 84/1/3 76/1/3 82/1/3
f 84/1/3 82/1/3 83/1/3
f 85/1/4 86/1/4 87/1/4
f 87/1/4 86/1/4 88/1/4
f 89/1/4 90/1/4 91/1/4
f 91/1/4 90/1/4 92/1/4
f 92/1/4 90/1/4 93/1/4
f 93/1/4 90/1/4 94/1/4
f 91/3/4 92/3/4 95/3/4
f 95/3/4 92/3/4 96/3/4
f 93/3/4 94/3/4 97/3/4
f 97/3/4 94/3/4 98/3/4
f 95/1/4 96/1/4 99/1/4
f 96/1/4 97/1/4 99/1/4
f 97/1/4 98/1/4 99/1/4
f 99/1/4 98/1/4 100/1/4
f 105/1/5 102/1/5 101/1/5
f 106/3/5 103/3/5 102/3/5
f 106/1/5 102/1/5 105/1/5
f 107/1/5 104/1/5 103/1/5
f 107/3/5 103/3/5 106/3/5
f 108/1/5 104/1/5 107/1/5
f 111/1/5 110/1/5 109/1/5
f 112/1/5 110/1/5 111/1/5
f 113/1/5 111/1/5 109/1/5
f 114/1/5 111/1/5 113/1/5
f 117/1/5 110/1/5 112/1/5
f 118/1/5 110/1/5 117/1/5
f 119/3/5 116/3/5 115/3/5
f 120/3/5 116/3/5 119/3/5
f 121/2/5 120/2/5 119/2/5
f 122/2/5 120/2/5 121/2/5
f 123/3/5 122/3/5 121/3/5
f 124/3/5 122/3/5 123/3/5
f 129/1/5 126/1/5 125/1/5
f 130/1/5 126/1/5 129/1/5
f 131/1/5 128/1/5 127/1/5
f 132/1/5 128/1/5 131/1/5
f 133/3/6 134/3/6 135/3/6
f 135/3/6 134/3/6 136/3/6
f 137/1/6 138/1/6 140/1/6
f 140/1/6 138/1/6 141/1/6
f 141/1/6 138/1/6 142/1/6
f 142/1/6 138/1/6 143/1/6
f 139/1/6 140/1/6 145/1/6
f 140/1/6 141/1/6 145/1/6
f 145/1/6 141/1/6 146/1/6
f 143/1/6 144/1/6 147/1/6
f 142/1/6 143/1/6 147/1/6
f 147/1/6 144/1/6 148/1/6
f 149/1/6 150/1/6 153/1/6
f 150/3/6 151/3/6 154/3/6
f 153/1/6 150/1/6 154/1/6
f 151/1/6 152/1/6 155/1/6
f 154/3/6 151/3/6 155/3/6
f 155/1/6 152/1/6 156/1/6
